# Created by Open3D 
# object name: dip
# number of vertices: 150
# number of triangles: 296
v -0.0311334 0.00764362 -0.0217149
vn -0.998668 0.00892729 -0.050811
v -0.0311334 0.00826788 -0.0210906
vn -0.999899 0.0142162 -0.000265901
v -0.0306334 0.0366679 -0.0160149
vn -0.999402 0.0332666 -0.00940594
v -0.0202059 0.0356139 0.00938509
vn 0.000719673 0.800749 0.598999
v 0.00236665 0.0376679 0.00658509
vn 0.0147151 0.998756 0.0476453
v -0.0296334 0.0376679 0.00658509
vn -0.0273073 0.995906 0.0861693
v -0.0202291 0.0354153 0.00958509
vn 0.0044063 0.12663 0.99194
v 0.0022838 0.0374679 0.00678509
vn 0.11756 0.168351 0.978692
v 0.00336665 0.0366679 0.00658509
vn 0.994286 0.0961088 0.0464546
v 0.00316665 0.036585 0.00678509
vn 0.187739 0.138645 0.972385
v -0.0311334 0.00764362 0.0122851
vn -0.926416 0.0651517 0.370821
v -0.0308334 0.00776788 0.0125851
vn -0.055043 0.0733027 0.99579
v -0.0306334 0.0366679 0.00658509
vn -0.996255 0.0838078 0.0212498
v -0.0295505 0.0374679 0.00678509
vn -0.254455 0.450765 0.855607
v 0.00336665 0.0177179 -0.0180149
vn 0.999297 0.00361648 -0.0373144
v 0.00236665 0.0177179 -0.0190149
vn 0.255463 0.113774 -0.960101
v 0.00336665 0.0366679 -0.0160149
vn 0.999383 0.0259365 -0.0237014
v -0.0308334 0.00776788 -0.0220149
vn -0.0614173 0.0742693 -0.995345
v -0.0281122 -0.0116857 -0.0220149
vn -0.0409777 -0.0249018 -0.99885
v -0.0273116 -0.0135144 -0.0217149
vn -0.798063 -0.602466 -0.0114017
v -0.0283841 -0.0118125 -0.0217149
vn -0.854548 -0.5193 -0.00869334
v -0.018334 0.0349482 0.00958509
vn 0.0627815 0.163279 0.98458
v -0.0166142 0.0340254 0.00958509
vn 0.110813 0.140942 0.983797
v 0.00236665 0.0177179 0.00958509
vn 0.255463 0.113774 0.960101
v -0.0311334 0.00826788 0.0116608
vn -0.999878 0.0155958 0.000173931
v -0.0304334 0.036585 0.00678509
vn -0.555336 0.197438 0.807849
v -0.026786 0.0330436 0.00958437
vn -0.218834 0.22581 0.949274
v -0.0221807 0.0353972 0.00958509
vn -0.02855 0.173957 0.984339
v -0.0269885 0.0328223 0.00958437
vn -0.273026 0.193456 0.942354
v -0.0280825 0.0312104 0.00958509
vn -0.36936 0.188284 0.910012
v -0.000607588 0.0210089 -0.0190149
vn 0.14024 0.128396 -0.981757
v -0.0114334 0.00776788 -0.0220149
vn 0.0474316 0.0800429 -0.995662
v -0.000625033 0.0210248 -0.0190149
vn 0.118001 0.138031 -0.983373
v -0.0310488 0.00111404 -0.0217149
vn -0.98436 -0.176082 -0.00559727
v -0.0307539 0.00116897 -0.0220149
vn -0.0226012 -0.00377875 -0.999737
v -0.0294541 -0.00581029 -0.0220149
vn -0.0317163 -0.00618637 -0.999478
v -0.0311334 0.00202952 -0.0217149
vn -0.999866 -0.0130346 -0.00988638
v -0.0284901 -0.011575 -0.0217149
vn -0.952103 -0.305774 -0.00174523
v -0.0184731 -0.0158653 -0.0217149
vn 0.00146807 -0.867294 -0.497795
v -0.0182271 -0.015857 -0.0217149
vn 0.226849 -0.966488 -0.120166
v -0.0201275 -0.0163686 -0.0206149
vn 0.161558 -0.986678 -0.0191216
v -0.0240872 -0.0158668 -0.0206149
vn -0.255872 -0.96671 -0.000354395
v -0.0242762 -0.0157889 -0.0217149
vn -0.483019 -0.875599 -0.00450335
v -0.0240396 -0.015857 -0.0217149
vn -0.226849 -0.966488 -0.120166
v -0.0221392 -0.0163686 -0.0206149
vn -0.0846178 -0.996396 -0.00597147
v -0.0141545 -0.0116857 0.0125851
vn 0.600852 -0.273604 0.751077
v -0.0138826 -0.0118125 0.0122851
vn 0.855019 -0.518572 0.00512803
v 0.00336665 0.0166679 0.00858509
vn 0.865051 -0.499302 0.0488191
v -0.0149551 -0.0135144 -0.0217149
vn 0.772272 -0.635277 -0.00439234
v -0.0151868 -0.0133238 -0.0220149
vn 0.4271 -0.351336 -0.833156
v -0.0164182 -0.0148949 -0.0217149
vn 0.599575 -0.800137 -0.0170176
v -0.0138826 -0.0118125 -0.0217149
vn 0.85526 -0.518119 -0.00916609
v -0.0141545 -0.0116857 -0.0220149
vn 0.623084 -0.283728 -0.728879
v 0.00336665 0.0166679 -0.0180149
vn 0.863516 -0.503838 -0.0220834
v -0.0256716 -0.0146526 -0.0220149
vn -0.0293356 -0.0360324 -0.99892
v -0.0258485 -0.0148949 -0.0217149
vn -0.630064 -0.776499 -0.00833647
v -0.0114334 0.00776788 0.0125851
vn 0.0440561 0.0768611 0.996068
v 0.00336665 0.0177179 0.00858509
vn 0.999789 0.00198206 0.0204507
v -0.0287444 0.0293743 0.00958509
vn -0.569677 0.169757 0.804146
v -0.0222076 0.0355954 0.00938509
vn -0.0196596 0.76895 0.639007
v 0.00236665 0.0170821 -0.0190149
vn 0.321245 -0.0757478 -0.943962
v -0.0114334 0.00202952 -0.0220149
vn 0.183452 -0.00220882 -0.983026
v -0.0115128 0.00116897 -0.0220149
vn 0.254279 -0.0447366 -0.966096
v -0.0128126 -0.00581029 -0.0220149
vn 0.269302 -0.0538572 -0.961549
v -0.0295505 0.0374679 -0.0162149
vn -0.262072 0.453424 -0.851895
v -0.0296334 0.0376679 -0.0160149
vn -0.0289246 0.998542 -0.0455771
v -0.0153278 0.032877 -0.0191149
vn 0.112462 0.131202 -0.984956
v -0.0308334 0.00202952 -0.0220149
vn -0.0323131 -0.000210216 -0.999478
v -0.029749 -0.00586521 -0.0217149
vn -0.939453 -0.189225 -0.285694
v -0.0289981 -0.00989688 -0.0205149
vn -0.980268 -0.197666 -0.0016412
v -0.0282619 -0.0112915 -0.0220149
vn -0.0399453 -0.00873087 -0.999164
v -0.0307539 0.00116897 0.0125851
vn -0.033903 -0.00566834 0.999409
v -0.0310488 0.00111404 0.0122851
vn -0.984265 -0.176375 0.0106682
v -0.0294541 -0.00581029 0.0125851
vn -0.0481582 -0.00939344 0.998796
v -0.0311334 0.00202952 0.0122851
vn -0.999919 -0.0118804 0.0045437
v -0.0237936 -0.0158653 -0.0217149
vn -0.000971324 -0.853626 -0.520885
v -0.0239927 -0.0155607 -0.0220149
vn -0.00881015 -0.0833732 -0.996479
v -0.0238205 -0.0155665 -0.0220149
vn -7.05124e-05 -0.0677434 -0.997703
v -0.0151868 -0.0133238 0.0125851
vn 0.279625 -0.230021 0.932148
v -0.0149551 -0.0135144 0.0122851
vn 0.77225 -0.635259 0.00874601
v -0.0179905 -0.0157889 -0.0217149
vn 0.483019 -0.875598 -0.00450335
v -0.0181084 -0.015513 -0.0220149
vn 0.125541 -0.234113 -0.96407
v -0.0165951 -0.0146526 -0.0220149
vn 0.131719 -0.175779 -0.975578
v -0.018274 -0.0155607 -0.0220149
vn 0.0137298 -0.129929 -0.991428
v -0.0270799 -0.0133238 -0.0220149
vn -0.0200581 -0.0165 -0.999663
v -0.0241584 -0.015513 -0.0220149
vn -0.0326004 -0.0607942 -0.997618
v -0.000625033 0.0210248 0.00958509
vn 0.113561 0.139648 0.983668
v 0.00236665 0.0170821 0.00958509
vn 0.321245 -0.0757478 0.943962
v -0.0128126 -0.00581029 0.0125851
vn 0.207753 -0.0415481 0.977299
v -0.0140048 -0.0112915 0.0125851
vn 0.217087 -0.0476624 0.974988
v -0.0140524 -0.0114571 0.0125851
vn 0.339292 -0.128903 0.931807
v -0.0240668 0.0348953 0.00958509
vn -0.0631064 0.193909 0.978988
v -0.0248357 0.0345332 0.00958509
vn -0.10963 0.19507 0.974643
v -0.0260046 0.0337609 0.00958473
vn -0.173003 0.195968 0.965229
v -0.0140048 -0.0112915 -0.0220149
vn 0.282817 -0.0620938 -0.957162
v -0.0304334 0.036585 -0.0162149
vn -0.570712 0.201207 -0.796118
v -0.0263425 0.0334735 -0.0191149
vn -0.189138 0.207747 -0.959723
v -0.0285474 0.0300911 -0.0191149
vn -0.573209 0.169319 -0.801725
v -0.0207116 0.0354565 -0.0191149
vn 0.00304422 0.123857 -0.992295
v -0.0276676 0.0319274 -0.0191149
vn -0.236605 0.194865 -0.951864
v 0.00316665 0.036585 -0.0162149
vn 0.187739 0.138644 -0.972385
v -0.029749 -0.00586521 0.0122851
vn -0.939453 -0.189225 0.285694
v -0.0256716 -0.0146526 0.0125851
vn -0.0698585 -0.0858058 0.99386
v -0.0273116 -0.0135144 0.0122851
vn -0.745051 -0.66691 0.0114017
v -0.0258485 -0.0148949 0.0122851
vn -0.56661 -0.823941 0.00863813
v -0.0285583 -0.0113384 -0.0217149
vn -0.939501 -0.207498 -0.27255
v -0.0282143 -0.0114571 -0.0220149
vn -0.0327062 -0.0112971 -0.999401
v -0.0308334 0.00202952 0.0125851
vn -0.0429918 -0.000279688 0.999075
v -0.0181795 -0.0158668 -0.0206149
vn 0.261492 -0.965205 -0.000665388
v -0.0184462 -0.0155665 -0.0220149
vn 6.60613e-05 -0.124347 -0.992239
v -0.000607588 0.0210089 0.00958509
vn 0.14024 0.128396 0.981757
v -0.0115128 0.00116897 0.0125851
vn 0.197293 -0.0347107 0.97973
v -0.0114334 0.00202952 0.0125851
vn 0.146566 -0.0017647 0.989199
v -0.0257667 0.0339435 0.00958437
vn -0.129425 0.195436 0.972139
v -0.0140524 -0.0114571 -0.0220149
vn 0.00153021 -0.000581354 -0.999999
v -0.0207008 0.0356562 -0.0189149
vn -0.00272971 0.810267 -0.586055
v 0.00236665 0.0376679 -0.0160149
vn 0.0523118 0.995072 -0.0842333
v -0.0227418 0.0353002 -0.0191149
vn -0.0407044 0.174425 -0.983829
v -0.0278298 0.0316676 -0.0191149
vn -0.390065 0.186883 -0.901623
v -0.0168738 0.0342021 -0.0191149
vn 0.114979 0.146068 -0.98257
v -0.0282619 -0.0112915 0.0125851
vn -0.0610707 -0.0133483 0.998044
v -0.0289981 -0.00989688 0.0110851
vn -0.980269 -0.197667 0.000805861
v -0.0241584 -0.015513 0.0125851
vn -0.0855969 -0.159624 0.98346
v -0.0242762 -0.0157889 0.0122851
vn -0.482244 -0.875991 0.00892025
v -0.0270799 -0.0133238 0.0125851
vn -0.0407357 -0.0335095 0.998608
v -0.0240396 -0.015857 0.0122851
vn -0.226849 -0.966488 0.120166
v -0.0240872 -0.0158668 0.0111851
vn -0.272075 -0.962276 0.000607836
v -0.0221392 -0.0163686 0.0111851
vn -0.161558 -0.986678 0.0191216
v -0.0164182 -0.0148949 0.0122851
vn 0.59964 -0.800224 0.00858274
v -0.0227831 0.0354959 -0.0189149
vn -0.0592957 0.725357 -0.685815
v -0.0246624 0.0346239 -0.0191149
vn -0.0988495 0.194838 -0.975842
v -0.0187102 0.0350819 -0.0191149
vn 0.054593 0.167033 -0.984439
v 0.0022838 0.0374679 -0.0162149
vn 0.121746 0.171097 -0.977703
v -0.0285583 -0.0113384 0.0122851
vn -0.9395 -0.207498 0.27255
v -0.0282143 -0.0114571 0.0125851
vn -0.0539223 -0.0186254 0.998371
v -0.0284901 -0.011575 0.0122851
vn -0.952243 -0.305322 0.0033707
v -0.0281122 -0.0116857 0.0125851
vn -0.0743596 -0.0451877 0.996207
v -0.0283841 -0.0118125 0.0122851
vn -0.854572 -0.519315 0.00436588
v -0.0237936 -0.0158653 0.0122851
vn -0.00117948 -0.84001 0.542569
v -0.0181084 -0.015513 0.0125851
vn 0.325052 -0.606167 0.725881
v -0.0179905 -0.0157889 0.0122851
vn 0.482244 -0.875991 0.00892026
v -0.0165951 -0.0146526 0.0125851
vn 0.275501 -0.367658 0.888215
v -0.0182271 -0.015857 0.0122851
vn 0.226849 -0.966488 0.120166
v -0.0184731 -0.0158653 0.0122851
vn 0.00115766 -0.876821 0.480815
v -0.0201275 -0.0163686 0.0111851
vn 0.0846177 -0.996396 0.00597147
v -0.0181795 -0.0158668 0.0111851
vn 0.262029 -0.96506 0.000337409
v -0.0239927 -0.0155607 0.0125851
vn -0.0360967 -0.341594 0.939154
v -0.0238205 -0.0155665 0.0125851
vn -0.000723477 -0.695066 0.718946
v -0.018274 -0.0155607 0.0125851
vn 2.40127e-05 -0.000227239 1
v -0.0184462 -0.0155665 0.0125851
vn 0.000374643 -0.705189 0.709019
f 1//1 2//2 3//3
f 4//4 5//5 6//6
f 5//5 4//4 7//7
f 5//5 8//8 9//9
f 9//9 8//8 10//10
f 8//8 5//5 7//7
f 11//11 12//12 13//13
f 13//13 14//14 6//6
f 15//15 16//16 17//17
f 18//18 1//1 3//3
f 19//19 20//20 21//21
f 22//22 8//8 7//7
f 8//8 22//22 23//23
f 24//24 9//9 10//10
f 25//25 11//11 13//13
f 26//26 14//14 13//13
f 14//14 26//26 27//27
f 12//12 26//26 13//13
f 14//14 28//28 6//6
f 28//28 12//12 7//7
f 27//27 29//29 12//12
f 29//29 30//30 12//12
f 26//26 29//29 27//27
f 29//29 26//26 30//30
f 31//31 16//16 32//32
f 33//33 31//31 32//32
f 34//34 35//35 36//36
f 35//35 34//34 37//37
f 38//38 19//19 21//21
f 39//39 40//40 41//41
f 42//42 43//43 44//44
f 45//45 42//42 44//44
f 46//46 47//47 48//48
f 50//50 49//49 51//51
f 49//49 50//50 52//52
f 50//50 53//53 52//52
f 52//52 53//53 54//54
f 20//20 55//55 56//56
f 22//22 57//57 23//23
f 57//57 22//22 7//7
f 24//24 58//58 9//9
f 30//30 59//59 12//12
f 59//59 26//26 12//12
f 26//26 59//59 30//30
f 60//60 4//4 6//6
f 28//28 60//60 6//6
f 4//4 60//60 7//7
f 60//60 28//28 7//7
f 62//62 61//61 63//63
f 61//61 64//64 63//63
f 53//53 61//61 54//54
f 66//66 65//65 3//3
f 67//67 33//33 32//32
f 68//68 35//35 37//37
f 34//34 69//69 70//70
f 69//69 34//34 36//36
f 71//71 69//69 36//36
f 72//72 73//73 74//74
f 72//72 75//75 73//73
f 76//76 77//77 78//78
f 77//77 76//76 44//44
f 76//76 45//45 44//44
f 47//47 79//79 80//80
f 46//46 79//79 47//47
f 81//81 82//82 51//51
f 82//82 81//81 40//40
f 83//83 50//50 51//51
f 82//82 83//83 51//51
f 39//39 84//84 40//40
f 84//84 82//82 40//40
f 19//19 85//85 20//20
f 85//85 55//55 20//20
f 86//86 43//43 56//56
f 55//55 86//86 56//56
f 43//43 86//86 44//44
f 86//86 77//77 44//44
f 57//57 87//87 23//23
f 87//87 8//8 23//23
f 88//88 89//89 90//90
f 91//91 88//88 90//90
f 88//88 91//91 46//46
f 88//88 46//46 48//48
f 92//92 28//28 14//14
f 93//93 92//92 14//14
f 28//28 92//92 12//12
f 92//92 93//93 12//12
f 94//94 27//27 12//12
f 94//94 14//14 27//27
f 61//61 95//95 64//64
f 65//65 96//96 3//3
f 96//96 65//65 97//97
f 96//96 18//18 3//3
f 96//96 98//98 18//18
f 18//18 99//99 32//32
f 100//100 97//97 18//18
f 100//100 96//96 97//97
f 16//16 101//101 17//17
f 31//31 101//101 16//16
f 73//73 102//102 74//74
f 103//103 104//104 105//105
f 106//106 38//38 70//70
f 69//69 106//106 70//70
f 71//71 106//106 69//69
f 38//38 107//107 19//19
f 106//106 107//107 38//38
f 107//107 106//106 71//71
f 72//72 108//108 75//75
f 81//81 109//109 40//40
f 40//40 109//109 41//41
f 110//110 84//84 39//39
f 111//111 57//57 24//24
f 111//111 87//87 57//57
f 111//111 24//24 10//10
f 8//8 111//111 10//10
f 87//87 111//111 8//8
f 112//112 88//88 113//113
f 88//88 112//112 89//89
f 93//93 114//114 12//12
f 114//114 94//94 12//12
f 114//114 93//93 14//14
f 94//94 114//114 14//14
f 115//115 61//61 53//53
f 115//115 95//95 61//61
f 116//116 66//66 117//117
f 99//99 116//116 117//117
f 118//118 65//65 66//66
f 118//118 116//116 99//99
f 118//118 99//99 18//18
f 98//98 119//119 18//18
f 119//119 100//100 18//18
f 96//96 119//119 98//98
f 100//100 119//119 96//96
f 120//120 67//67 32//32
f 67//67 120//120 33//33
f 102//102 121//121 74//74
f 122//122 102//102 73//73
f 123//123 105//105 124//124
f 123//123 103//103 105//105
f 103//103 125//125 104//104
f 127//127 126//126 124//124
f 128//128 126//126 127//127
f 126//126 123//123 124//124
f 79//79 129//129 80//80
f 116//116 130//130 66//66
f 130//130 118//118 66//66
f 118//118 130//130 116//116
f 65//65 131//131 97//97
f 118//118 131//131 65//65
f 97//97 131//131 18//18
f 131//131 118//118 18//18
f 99//99 132//132 32//32
f 132//132 120//120 32//32
f 120//120 133//133 33//33
f 133//133 31//31 33//33
f 133//133 101//101 31//31
f 132//132 133//133 120//120
f 133//133 117//117 17//17
f 101//101 133//133 17//17
f 133//133 99//99 117//117
f 133//133 132//132 99//99
f 121//121 134//134 135//135
f 135//135 134//134 136//136
f 134//134 121//121 102//102
f 134//134 122//122 136//136
f 122//122 134//134 102//102
f 137//137 138//138 104//104
f 125//125 137//137 104//104
f 138//138 137//137 136//136
f 137//137 135//135 136//136
f 139//139 126//126 128//128
f 129//129 140//140 141//141
f 142//142 129//129 79//79
f 142//142 140//140 129//129
f 143//143 144//144 145//145
f 143//143 146//146 141//141
f 146//146 143//143 145//145
f 140//140 143//143 141//141
f 126//126 147//147 123//123
f 148//148 147//147 139//139
f 139//139 147//147 126//126
f 149//149 143//143 140//140
f 149//149 150//150 144//144
f 143//143 149//149 144//144
f 17//17 117//117 9//9
f 117//117 5//5 9//9
f 13//13 66//66 3//3
f 66//66 13//13 6//6
f 117//117 66//66 5//5
f 5//5 66//66 6//6
f 48//48 47//47 54//54
f 47//47 52//52 54//54
f 25//25 13//13 3//3
f 2//2 25//25 3//3
f 49//49 47//47 80//80
f 47//47 49//49 52//52
f 12//12 57//57 7//7
f 58//58 17//17 9//9
f 15//15 58//58 54//54
f 58//58 48//48 54//54
f 58//58 15//15 17//17
f 61//61 62//62 32//32
f 16//16 61//61 32//32
f 61//61 15//15 54//54
f 15//15 61//61 16//16
f 43//43 105//105 56//56
f 124//124 105//105 43//43
f 127//127 124//124 43//43
f 42//42 127//127 43//43
f 1//1 68//68 37//37
f 18//18 68//68 1//1
f 75//75 1//1 37//37
f 75//75 25//25 2//2
f 1//1 75//75 2//2
f 25//25 75//75 11//11
f 73//73 75//75 34//34
f 34//34 75//75 37//37
f 76//76 39//39 41//41
f 45//45 76//76 41//41
f 88//88 57//57 113//113
f 57//57 88//88 24//24
f 58//58 88//88 48//48
f 88//88 58//58 24//24
f 104//104 20//20 56//56
f 105//105 104//104 56//56
f 128//128 127//127 42//42
f 128//128 42//42 45//45
f 75//75 108//108 11//11
f 11//11 108//108 12//12
f 76//76 110//110 39//39
f 110//110 76//76 78//78
f 83//83 115//115 50//50
f 115//115 68//68 18//18
f 115//115 18//18 32//32
f 62//62 115//115 32//32
f 115//115 86//86 55//55
f 115//115 53//53 50//50
f 35//35 115//115 36//36
f 115//115 62//62 63//63
f 64//64 115//115 63//63
f 107//107 115//115 19//19
f 77//77 115//115 78//78
f 115//115 71//71 36//36
f 68//68 115//115 35//35
f 95//95 115//115 64//64
f 115//115 85//85 19//19
f 115//115 83//83 82//82
f 84//84 115//115 82//82
f 85//85 115//115 55//55
f 86//86 115//115 77//77
f 115//115 110//110 78//78
f 115//115 107//107 71//71
f 110//110 115//115 84//84
f 38//38 122//122 70//70
f 136//136 122//122 38//38
f 122//122 34//34 70//70
f 122//122 73//73 34//34
f 138//138 136//136 38//38
f 138//138 38//38 21//21
f 20//20 138//138 21//21
f 104//104 138//138 20//20
f 49//49 129//129 51//51
f 129//129 49//49 80//80
f 129//129 81//81 51//51
f 129//129 141//141 81//81
f 145//145 128//128 45//45
f 145//145 45//45 41//41
f 141//141 146//146 81//81
f 146//146 109//109 81//81
f 146//146 145//145 41//41
f 109//109 146//146 41//41
f 145//145 144//144 128//128
f 144//144 139//139 128//128
f 144//144 150//150 139//139
f 150//150 148//148 139//139
f 57//57 149//149 113//113
f 149//149 91//91 90//90
f 108//108 149//149 12//12
f 121//121 149//149 74//74
f 149//149 57//57 12//12
f 137//137 149//149 135//135
f 89//89 149//149 90//90
f 149//149 72//72 74//74
f 91//91 149//149 46//46
f 149//149 79//79 46//46
f 149//149 112//112 113//113
f 149//149 108//108 72//72
f 112//112 149//149 89//89
f 149//149 121//121 135//135
f 123//123 149//149 103//103
f 149//149 125//125 103//103
f 149//149 142//142 79//79
f 149//149 137//137 125//125
f 142//142 149//149 140//140
f 147//147 149//149 123//123
f 150//150 149//149 148//148
f 149//149 147//147 148//148
