# Created by Open3D 
# object name: pip
# number of vertices: 111
# number of triangles: 218
v -0.023784 0.0138566 -0.0116
vn -0.996409 0.0274091 -0.080115
v -0.0217723 0.00578919 -0.0145
vn -0.81409 0 -0.580738
v -0.023784 -0.0181434 -0.0116
vn -0.998502 -0.0287696 -0.0465448
v -0.00178403 -0.0167291 0.014
vn 0.134387 -0.010809 0.99087
v -0.00178403 0.0124424 0.014
vn 0.193201 0.00660369 0.981137
v -0.0131346 0.00532874 0.0147654
vn 0.0668379 -1.4559e-05 0.997764
v -0.00319825 0.0138566 0.014
vn 0.118527 0.149406 0.981646
v -0.00278403 0.0148566 0.013
vn 0.544931 0.837296 0.044564
v -0.000784034 0.0128566 0.013
vn 0.992539 0.116222 0.0368608
v -0.0227012 -0.0189434 0.0112
vn -0.138645 -0.187739 0.972385
v -0.022784 -0.0191434 0.011
vn -0.0961088 -0.994286 0.0464546
v -0.00383403 -0.0181434 0.014
vn -0.0870183 -0.236107 0.967823
v -0.00383403 -0.0191434 -0.0136
vn -0.00361648 -0.999297 -0.0373144
v -0.00383403 -0.0181434 -0.0146
vn -0.0445061 -0.130839 -0.990404
v -0.022784 -0.0191434 -0.0116
vn -0.0257609 -0.999393 -0.0234506
v -0.023584 -0.0180605 -0.0118
vn -0.177164 -0.120936 -0.976723
v -0.0214164 0.00374817 -0.0147
vn -0.205829 -0.043377 -0.977626
v -0.02074 0.00182758 -0.0147
vn -0.139277 -0.0706608 -0.987729
v -0.00319825 0.0138566 -0.0146
vn 0.0876221 0.110134 -0.990047
v -0.00278403 0.0148566 -0.0136
vn 0.546743 0.836991 -0.0227686
v -0.000784034 0.0128566 -0.0136
vn 0.998756 0.0330321 -0.0373414
v -0.00178403 0.0124424 -0.0146
vn 0.168729 0.00865134 -0.985624
v -0.0154337 0.0131847 -0.0145
vn -0.06664 0.779364 -0.623018
v -0.00383403 0.0148566 -0.0136
vn -0.00717562 0.996944 -0.0777851
v -0.022784 0.0148566 -0.0116
vn -0.0483114 0.998249 -0.0341397
v -0.023584 0.0137738 -0.0118
vn -0.472825 0.251624 -0.844466
v -0.00319825 -0.0181434 0.014
vn 0.0338168 -0.0596736 0.997645
v -0.00278403 -0.0191434 0.013
vn 0.550767 -0.832697 0.0571879
v -0.0131327 0.00524406 0.0147643
vn 0.0227807 -0.0229382 0.999477
v -0.000784034 -0.0171434 0.013
vn 0.997502 -0.0613127 0.0350681
v -0.00383403 -0.0191434 0.013
vn -0.00198207 -0.999789 0.0204507
v -0.0227012 -0.0189434 -0.0118
vn -0.140499 -0.189391 -0.971798
v -0.0215726 0.00577837 -0.0147
vn -0.396499 0.0105884 -0.917974
v -0.00383403 0.0138566 -0.0146
vn -0.0376538 0.694534 -0.718474
v -0.0133623 0.0131452 -0.0147
vn -0.0148666 0.257436 -0.966181
v -0.0227012 0.0146566 -0.0118
vn -0.266827 0.464005 -0.844691
v -0.0133515 0.0133449 -0.0145
vn -0.052272 0.72684 -0.684814
v -0.00383403 0.0148566 0.013
vn -0.00358292 0.999257 0.0383655
v -0.0140266 0.013353 0.0138
vn -0.0628954 0.757506 0.649791
v -0.022784 0.0148566 0.011
vn -0.0549606 0.995578 0.076177
v -0.007141 -0.0151517 0.014
vn -0.125596 -0.102199 0.986803
v -0.0195311 8.30152e-05 0.014
vn -0.0821071 -0.0667666 0.994385
v -0.0196654 0.000231215 0.0139987
vn -0.145337 -0.115922 0.982568
v -0.023584 -0.0180605 0.0112
vn -0.175919 -0.116598 0.977475
v -0.00178403 -0.0167291 -0.0146
vn 0.167727 -0.0104239 -0.985778
v -0.000784034 -0.0171434 -0.0136
vn 0.997367 -0.0623354 -0.037072
v -0.00278403 -0.0191434 -0.0136
vn 0.549823 -0.834763 -0.0294324
v -0.00319825 -0.0181434 -0.0146
vn 0.0251211 -0.0524185 -0.998309
v -0.0195896 0.000147484 -0.0147
vn -0.127355 -0.107363 -0.986029
v -0.007141 -0.0151517 -0.0146
vn -0.14511 -0.124498 -0.981551
v -0.0180436 -0.00117761 -0.0147
vn -0.0065903 -0.0101097 -0.999927
v -0.0211981 0.00777984 -0.0147
vn -0.241031 0.0787782 -0.967315
v -0.0203183 0.00961617 -0.0147
vn -0.196923 0.12837 -0.971979
v -0.013784 0.00470664 -0.0147654
vn -0.000908731 -0.00722576 -0.999973
v -0.013134 0.00535664 -0.0147654
vn 0.0080967 -0.00160588 -0.999966
v -0.0113608 0.0127707 -0.0147
vn 0.0045568 0.0149284 -0.999878
v -0.00383403 0.0138566 0.014
vn -0.014549 0.233979 0.972133
v -0.0140206 0.0131531 0.014
vn -0.02115 0.191569 0.981251
v -0.0138119 0.00470724 0.0147654
vn -0.000244805 -0.0319318 0.99949
v -0.0138966 0.00470535 0.0147643
vn -0.0239381 -0.0430242 0.998787
v -0.0207503 0.00184793 0.014
vn -0.16761 -0.0846795 0.98221
v -0.0214033 0.0036872 0.014
vn -0.240162 -0.0526238 0.969305
v -0.0145344 0.00506357 0.0147468
vn -0.0826133 -0.0661358 0.994385
v -0.0135871 0.00602095 0.0147607
vn 0.041866 0.0411996 0.998273
v -0.00712504 -0.0151691 0.014
vn -0.104473 -0.11292 0.988096
v -0.00712504 -0.0151691 -0.0146
vn -0.122476 -0.132521 -0.983584
v -0.0162072 -0.00205741 -0.0147
vn -0.00334807 -0.00869811 -0.999957
v -0.014434 0.00535664 -0.0147654
vn -0.00792928 0.000384031 -0.999968
v -0.00599544 0.0049349 -0.0147
vn 0.0201326 -0.000202877 -0.999797
v -0.00978431 0.0120531 -0.0147
vn 0.00613372 0.0128024 -0.999899
v -0.0095245 0.0118909 -0.0147
vn 0.00822339 0.00998482 -0.999916
v -0.023584 0.0137738 0.0112
vn -0.476298 0.236882 0.846775
v -0.023784 0.0138566 0.011
vn -0.998678 0.0288164 0.0425664
v -0.0177413 0.0120783 0.014
vn -0.15984 0.233946 0.959021
v -0.0192861 0.0108854 0.014
vn -0.206773 0.207994 0.956025
v -0.0140771 0.00610699 0.0147468
vn -0.0664553 0.0828689 0.994342
v -0.0137273 0.00469801 0.0147643
vn 0.020623 -0.0239021 0.999502
v -0.0131053 0.00549586 0.0147607
vn 0.0432852 0.0387043 0.998313
v -0.0137561 0.00600604 0.0147654
vn 0.000663448 0.0831422 0.996537
v -0.013981 0.00469233 0.0147607
vn -0.0496564 -0.0552207 0.997239
v -0.0140626 0.00466847 0.0147549
vn -0.0636255 -0.0601171 0.996161
v -0.0153925 0.012989 -0.0147
vn -0.0613701 0.221192 -0.973297
v -0.0173131 0.0123126 -0.0147
vn -0.110729 0.218252 -0.96959
v -0.013784 0.00600664 -0.0147654
vn 0.000380606 0.0078586 -0.999969
v -0.00636999 0.00293344 -0.0147
vn 0.00899814 -0.00286652 -0.999955
v -0.0227012 0.0146566 0.0112
vn -0.275401 0.432519 0.858535
v -0.0215792 0.005631 0.014
vn -0.425748 0.00797135 0.904807
v -0.0217791 0.00563803 0.0138
vn -0.805786 0 0.592206
v -0.023784 -0.0181434 0.011
vn -0.995839 -0.0272482 0.0869635
v -0.0131254 0.00541341 0.0147643
vn 0.0535764 0.0191434 0.99838
v -0.0136715 0.00600792 0.0147643
vn 0.0218531 0.0619112 0.997842
v -0.0138408 0.00601526 0.0147643
vn -0.00885494 0.106054 0.994321
v -0.0144334 0.00538454 0.0147654
vn -0.0429053 0.0016072 0.999078
v -0.0189932 0.0111622 -0.0147
vn -0.162821 0.176885 -0.97067
v -0.00797846 0.0105658 -0.0147
vn 0.00952113 0.00880716 -0.999916
v -0.00682805 0.0088857 -0.0147
vn 0.0110695 0.00561603 -0.999923
v -0.00615168 0.00696511 -0.0147
vn 0.0128808 0.00271454 -0.999913
v -0.0169365 0.0124912 0.014
vn -0.118404 0.274941 0.954143
v -0.0144353 0.00546922 0.0147643
vn -0.10494 0.0173064 0.994328
v -0.0144427 0.00529986 0.0147643
vn -0.106038 -0.00982389 0.994314
v -0.0204864 0.00934643 0.014
vn -0.231231 0.158902 0.959835
v -0.0209184 0.00850943 0.014
vn -0.264914 0.115599 0.957318
v -0.0212671 0.00755762 0.014
vn -0.303185 0.069619 0.950385
v -0.0144628 0.00521741 0.0147607
vn -0.0983458 -0.0266703 0.994795
v -0.0159487 0.0128503 0.014
vn -0.0738692 0.335547 0.939123
v -0.0139233 0.00603539 0.0147607
vn -0.0267097 0.0982221 0.994806
v -0.0140023 0.00606604 0.0147549
vn -0.0422759 0.0971709 0.994369
v -0.0144483 0.00555356 0.0147607
vn -0.0987742 0.0365391 0.994439
v -0.0144934 0.00513837 0.0147549
vn -0.09041 -0.0446084 0.994905
v -0.0144722 0.00563519 0.0147549
vn -0.0937285 0.0495962 0.994362
v -0.0145065 0.00571297 0.0147468
vn -0.0812676 0.0684539 0.994339
f 1//1 2//2 3//3
f 4//4 5//5 6//6
f 8//8 7//7 9//9
f 7//7 5//5 9//9
f 10//10 11//11 12//12
f 14//14 13//13 15//15
f 16//16 17//17 18//18
f 19//19 20//20 21//21
f 22//22 19//19 21//21
f 24//24 23//23 25//25
f 26//26 1//1 25//25
f 27//27 28//28 4//4
f 29//29 4//4 6//6
f 29//29 27//27 4//4
f 28//28 30//30 4//4
f 11//11 31//31 12//12
f 32//32 14//14 15//15
f 33//33 16//16 3//3
f 2//2 33//33 3//3
f 16//16 33//33 17//17
f 1//1 33//33 2//2
f 26//26 33//33 1//1
f 24//24 34//34 35//35
f 34//34 19//19 35//35
f 36//36 26//26 25//25
f 37//37 24//24 35//35
f 37//37 23//23 24//24
f 39//39 38//38 40//40
f 41//41 42//42 43//43
f 44//44 41//41 43//43
f 45//45 46//46 47//47
f 48//48 45//45 47//47
f 49//49 16//16 18//18
f 49//49 50//50 16//16
f 49//49 51//51 14//14
f 53//53 52//52 26//26
f 52//52 33//33 26//26
f 54//54 48//48 14//14
f 45//45 54//54 55//55
f 54//54 45//45 48//48
f 49//49 54//54 51//51
f 19//19 56//56 35//35
f 57//57 38//38 39//39
f 58//58 39//39 40//40
f 58//58 57//57 39//39
f 59//59 29//29 6//6
f 27//27 59//59 12//12
f 59//59 60//60 12//12
f 61//61 44//44 43//43
f 44//44 61//61 62//62
f 63//63 61//61 43//43
f 42//42 63//63 43//43
f 41//41 63//63 42//42
f 7//7 64//64 5//5
f 65//65 10//10 12//12
f 65//65 44//44 10//10
f 65//65 41//41 44//44
f 66//66 49//49 14//14
f 49//49 66//66 50//50
f 32//32 66//66 14//14
f 66//66 32//32 16//16
f 50//50 66//66 16//16
f 51//51 67//67 14//14
f 67//67 54//54 14//14
f 54//54 67//67 51//51
f 52//52 68//68 33//33
f 68//68 52//52 53//53
f 33//33 68//68 17//17
f 17//17 68//68 18//18
f 68//68 49//49 18//18
f 68//68 54//54 49//49
f 45//45 69//69 22//22
f 71//71 70//70 19//19
f 70//70 56//56 19//19
f 73//73 72//72 40//40
f 74//74 75//75 76//76
f 29//29 77//77 27//27
f 77//77 59//59 27//27
f 59//59 77//77 29//29
f 64//64 78//78 5//5
f 57//57 79//79 7//7
f 60//60 80//80 12//12
f 80//80 65//65 12//12
f 80//80 81//81 65//65
f 82//82 37//37 35//35
f 37//37 82//82 23//23
f 82//82 83//83 36//36
f 23//23 82//82 25//25
f 82//82 36//36 25//25
f 84//84 70//70 71//71
f 82//82 84//84 83//83
f 70//70 84//84 56//56
f 84//84 82//82 35//35
f 56//56 84//84 35//35
f 85//85 45//45 55//55
f 69//69 85//85 55//55
f 85//85 69//69 45//45
f 72//72 86//86 40//40
f 86//86 72//72 75//75
f 74//74 86//86 75//75
f 87//87 73//73 88//88
f 87//87 72//72 73//73
f 87//87 44//44 62//62
f 44//44 87//87 89//89
f 87//87 88//88 89//89
f 5//5 90//90 6//6
f 78//78 90//90 5//5
f 90//90 78//78 64//64
f 91//91 64//64 7//7
f 79//79 91//91 7//7
f 91//91 90//90 64//64
f 91//91 79//79 6//6
f 90//90 91//91 6//6
f 58//58 92//92 57//57
f 92//92 79//79 57//57
f 59//59 93//93 60//60
f 84//84 94//94 83//83
f 94//94 84//84 68//68
f 94//94 68//68 53//53
f 83//83 94//94 36//36
f 94//94 53//53 26//26
f 36//36 94//94 26//26
f 96//96 95//95 22//22
f 95//95 19//19 22//22
f 95//95 71//71 19//19
f 95//95 96//96 55//55
f 84//84 95//95 55//55
f 95//95 84//84 71//71
f 69//69 97//97 22//22
f 97//97 96//96 22//22
f 97//97 69//69 55//55
f 96//96 97//97 55//55
f 98//98 86//86 74//74
f 99//99 93//93 79//79
f 92//92 99//99 79//79
f 93//93 99//99 87//87
f 100//100 80//80 60//60
f 93//93 100//100 60//60
f 100//100 87//87 62//62
f 100//100 93//93 87//87
f 72//72 101//101 75//75
f 102//102 101//101 72//72
f 87//87 103//103 72//72
f 103//103 102//102 72//72
f 99//99 103//103 87//87
f 100//100 104//104 80//80
f 104//104 100//100 62//62
f 105//105 92//92 58//58
f 105//105 106//106 92//92
f 105//105 58//58 40//40
f 98//98 105//105 86//86
f 86//86 105//105 40//40
f 107//107 74//74 76//76
f 107//107 98//98 74//74
f 107//107 105//105 98//98
f 105//105 107//107 106//106
f 108//108 99//99 92//92
f 106//106 108//108 92//92
f 107//107 108//108 106//106
f 103//103 108//108 102//102
f 108//108 103//103 99//99
f 109//109 81//81 80//80
f 104//104 109//109 80//80
f 109//109 63//63 41//41
f 63//63 109//109 61//61
f 65//65 109//109 41//41
f 81//81 109//109 65//65
f 61//61 109//109 62//62
f 109//109 104//104 62//62
f 110//110 107//107 76//76
f 110//110 108//108 107//107
f 110//110 101//101 102//102
f 108//108 110//110 102//102
f 75//75 111//111 76//76
f 111//111 110//110 76//76
f 101//101 111//111 75//75
f 110//110 111//111 101//101
f 3//3 11//11 89//89
f 15//15 11//11 3//3
f 20//20 9//9 21//21
f 20//20 8//8 9//9
f 11//11 44//44 89//89
f 10//10 44//44 11//11
f 30//30 28//28 47//47
f 46//46 30//30 47//47
f 9//9 30//30 21//21
f 30//30 46//46 21//21
f 5//5 30//30 9//9
f 4//4 30//30 5//5
f 28//28 31//31 47//47
f 31//31 13//13 47//47
f 31//31 11//11 15//15
f 13//13 31//31 15//15
f 31//31 27//27 12//12
f 27//27 31//31 28//28
f 13//13 48//48 47//47
f 48//48 13//13 14//14
f 73//73 3//3 89//89
f 73//73 1//1 3//3
f 88//88 73//73 89//89
f 73//73 40//40 25//25
f 1//1 73//73 25//25
f 32//32 15//15 3//3
f 16//16 32//32 3//3
f 34//34 24//24 20//20
f 19//19 34//34 20//20
f 20//20 38//38 8//8
f 40//40 38//38 25//25
f 38//38 24//24 25//25
f 24//24 38//38 20//20
f 45//45 22//22 21//21
f 46//46 45//45 21//21
f 38//38 57//57 8//8
f 57//57 7//7 8//8
f 68//68 84//84 54//54
f 54//54 84//84 55//55
f 79//79 93//93 6//6
f 93//93 59//59 6//6
